<?xml version="1.0" encoding="UTF-8" standalone="no"?>
<!-- Created with Inkscape (http://www.inkscape.org/) -->

<svg
   width="270.93335mm"
   height="270.93335mm"
   viewBox="0 0 208.41028 208.41028"
   version="1.1"
   id="svg5"
   xml:space="preserve"
   inkscape:version="1.2.2 (732a01da63, 2022-12-09)"
   sodipodi:docname="dibujo.svg"
   inkscape:export-filename="dibujo.png"
   inkscape:export-xdpi="96"
   inkscape:export-ydpi="96"
   xmlns:inkscape="http://www.inkscape.org/namespaces/inkscape"
   xmlns:sodipodi="http://sodipodi.sourceforge.net/DTD/sodipodi-0.dtd"
   xmlns="http://www.w3.org/2000/svg"
   xmlns:svg="http://www.w3.org/2000/svg"><sodipodi:namedview
     id="namedview7"
     pagecolor="#ffffff"
     bordercolor="#000000"
     borderopacity="0.25"
     inkscape:showpageshadow="2"
     inkscape:pageopacity="0.0"
     inkscape:pagecheckerboard="0"
     inkscape:deskcolor="#d1d1d1"
     inkscape:document-units="mm"
     showgrid="false"
     inkscape:zoom="0.72515432"
     inkscape:cx="122.7325"
     inkscape:cy="480.58736"
     inkscape:window-width="1920"
     inkscape:window-height="1001"
     inkscape:window-x="-9"
     inkscape:window-y="-9"
     inkscape:window-maximized="1"
     inkscape:current-layer="layer1" /><defs
     id="defs2" /><g
     inkscape:label="Capa 1"
     inkscape:groupmode="layer"
     id="layer1"
     transform="matrix(1.2036205,0,0,1.2036205,-37.492472,-68.82992)"><circle
       style="fill:#d40000;stroke:#fefefe;stroke-width:0.291971"
       id="path788"
       cx="117.72614"
       cy="143.76213"
       r="86.430412"
       inkscape:label="Background" /><path
       d="m -4.1265561,11.235826 c 0,-1.7493333 0.3413333,-3.434667 1.024,-5.0560003 0.6826667,-1.6213333 1.6106667,-3.008 2.78399998,-4.16 1.1733333,-1.15200002 2.56000002,-2.06933332 4.16000002,-2.75200002 1.6,-0.68266668 3.285333,-1.03466668 5.056,-1.05599998 1.7706671,0 3.4560001,0.352 5.0560001,1.05599998 1.6,0.704 2.986667,1.6213333 4.16,2.75200002 1.173333,1.1306667 2.101333,2.5173333 2.784,4.16 0.682667,1.6426667 1.024,3.328 1.024,5.0560003 0,2.410667 -0.661333,4.682667 -1.984,6.816 L 34.5704,33.098814 c 0.576,0.597333 0.864,1.312 0.864,2.144 0,0.832 -0.288,1.536 -0.864,2.112 -0.576,0.576 -1.290667,0.864 -2.144,0.864 -0.853333,0 -1.557333,-0.288 -2.112,-0.864 L 15.713444,22.307826 c -2.133333,1.301333 -4.405333,1.952 -6.8160001,1.952 -1.770667,0 -3.456,-0.341333 -5.056,-1.024 -1.6,-0.682667 -2.98666672,-1.610667 -4.16000002,-2.784 -1.17333328,-1.173333 -2.10133328,-2.549333 -2.78399998,-4.128 -0.6826667,-1.578667 -1.024,-3.274667 -1.024,-5.088 z m 3.99999998,0 c 0,1.642667 0.4053333,3.157333 1.21600002,4.544 0.8106667,1.386667 1.9093333,2.474667 3.296,3.264 1.3866667,0.789333 2.890667,1.194667 4.512,1.216 1.2160001,0 2.3786671,-0.234667 3.4880001,-0.704 1.109333,-0.469333 2.069333,-1.109333 2.88,-1.92 0.810667,-0.810667 1.450667,-1.770667 1.92,-2.88 0.469333,-1.109333 0.714667,-2.282667 0.736,-3.52 0.02133,-1.2373333 -0.224,-2.4106673 -0.736,-3.5200003 -0.512,-1.1093333 -1.152,-2.0586667 -1.92,-2.848 -0.768,-0.7893333 -1.728,-1.4293333 -2.88,-1.92 -1.152,-0.4906667 -2.314667,-0.736 -3.4880001,-0.736 -1.621333,0 -3.1253333,0.4053333 -4.512,1.216 -1.3866667,0.8106667 -2.4853333,1.9093333 -3.296,3.296 -0.81066672,1.3866667 -1.21600002,2.890667 -1.21600002,4.5120003 z"
       id="path1620"
       sodipodi:nodetypes="sssscssssccsssccsssssssscsssssssssss"
       style="fill:#ffffff"
       transform="matrix(2.6525619,0,0,2.6525619,52.971166,95.477919)"
       inkscape:label="lupa" /><path
       style="fill:#d40000;fill-opacity:1;stroke:#d40000;stroke-width:34.2665;stroke-dasharray:none;stroke-opacity:1"
       d="m 430.598,642.96008 c 0,-0.46503 1.27861,-4.69049 2.84136,-9.3899 2.84191,-8.54606 9.45711,-22.80739 15.2159,-32.80312 l 3.0597,-5.31082 18.83208,19.39855 c 16.01088,16.49248 18.63,19.4733 17.48314,19.89755 -1.70497,0.63071 -16.53758,2.92665 -30.88611,4.78087 -10.66101,1.37769 -21.78992,3.11135 -24.99468,3.89367 -0.97131,0.23711 -1.55139,0.0626 -1.55139,-0.4668 z"
       id="path2684"
       transform="scale(0.26458334)"
       inkscape:label="tapar lupa" /><path
       fill-rule="evenodd"
       clip-rule="evenodd"
       d="M 22.8013,1.74899 C 22.6665,1.22946 22.1457,0.908925 21.6212,1.02275 8.65054,3.83745 2.58949,13.7685 0.052924,22.7276 -0.0695134,23.16 0.111594,23.621 0.495639,23.8545 0.671767,23.9616 0.870732,24.0087 1.06614,23.9987 1.30094,22.8623 2.3183,22.0061 3.53976,22 l 0.28869,-0.2712 c 0.4025,-0.3782 0.42221,-1.0111 0.04403,-1.4135 -0.21696,-0.231 -0.51776,-0.3359 -0.81079,-0.312 l 0.03884,-0.1008 c 0.03232,-0.0457 0.06122,-0.0947 0.08618,-0.1469 0.20498,-0.4286 0.43434,-0.6728 0.66456,-0.8274 0.237,-0.1592 0.5373,-0.2652 0.94343,-0.3228 0.41466,-0.0587 0.89648,-0.0617 1.47926,-0.0417 0.18874,0.0065 0.39395,0.0157 0.60924,0.0254 h 8e-5 c 0.41154,0.0186 0.85991,0.0388 1.30043,0.0444 1.38844,0.018 2.99399,-0.0953 4.66269,-0.8313 1.6772,-0.7397 3.3339,-2.0704 4.9023,-4.3512 0.2431,-0.3536 0.2336,-0.8229 -0.0238,-1.1664 -0.0303,-0.0403 -0.0632,-0.0779 -0.0983,-0.1125 1.0456,-0.5919 1.9643,-1.3928 2.7221,-2.29063 1.0142,-1.20167 1.7759,-2.60993 2.2131,-4.01233 0.4338,-1.39186 0.5691,-2.84873 0.2395,-4.12015 z M 6.34251,16.5649 c -0.58487,-0.02 -1.19107,-0.024 -1.7703,0.0524 0.5353776,-4.832985 17.740726,-16.76953093 16.08019,-11.34338 -0.3576,1.14691 -0.9894,2.3191 -1.8321,3.31756 -1.6902,2.00262 -4.0868,3.17512 -6.7544,2.36132 -0.3995,-0.1219 -0.8327,0.0174 -1.0864,0.3493 -0.2536,0.3319 -0.2742,0.7864 -0.0517,1.1399 0.6435,1.0221 1.9418,1.7223 3.5914,1.7959 -0.8506,0.8427 -1.6843,1.3835 -2.4799,1.7344 C 10.7466,16.5425 9.46928,16.65 8.20953,16.6337 7.79588,16.6284 7.41308,16.611 7.02596,16.5934 h -1e-5 C 6.80185,16.5832 6.57631,16.5729 6.34251,16.5649 Z"
       fill="#000000"
       id="path1260"
       style="display:inline;fill:#ffffff;fill-opacity:1;stroke:#ffffff;stroke-opacity:1"
       sodipodi:nodetypes="ccccccccccccccsscccccccccccsccccccssc"
       transform="matrix(4.3245119,-0.74946448,0.74946448,4.3245119,79.162224,104.88781)"
       inkscape:label="pluma" /></g></svg>
